<?xml version="1.0" encoding="UTF-8"?>
<svg xmlns="http://www.w3.org/2000/svg" xmlns:xlink="http://www.w3.org/1999/xlink" width="24px" height="24px" viewBox="0 0 24 24" version="1.1">
<g id="surface1">
<path style=" stroke:none;fill-rule:nonzero;fill:rgb(0%,0%,0%);fill-opacity:1;" d="M 22.445312 5.230469 L 15.960938 5.230469 L 15.960938 3.652344 C 15.960938 3.222656 15.613281 2.875 15.183594 2.875 L 8.816406 2.875 C 8.386719 2.875 8.039062 3.222656 8.039062 3.652344 L 8.039062 5.230469 L 1.554688 5.230469 C 0.695312 5.230469 0 5.929688 0 6.785156 L 0 9.832031 C 0 10.386719 0.296875 10.898438 0.777344 11.175781 L 0.777344 20.347656 C 0.777344 20.777344 1.125 21.125 1.554688 21.125 L 22.445312 21.125 C 22.875 21.125 23.222656 20.777344 23.222656 20.347656 L 23.222656 11.175781 C 23.703125 10.898438 24 10.386719 24 9.832031 L 24 6.785156 C 24 5.929688 23.304688 5.230469 22.445312 5.230469 Z M 9.59375 4.425781 L 14.40625 4.425781 L 14.40625 5.230469 L 9.59375 5.230469 Z M 21.667969 19.574219 L 2.332031 19.574219 L 2.332031 12.046875 L 9.53125 16.066406 L 9.824219 16.230469 L 9.824219 16.855469 C 9.824219 17.285156 10.171875 17.632812 10.601562 17.632812 L 13.398438 17.632812 C 13.828125 17.632812 14.175781 17.285156 14.175781 16.855469 L 14.175781 16.230469 L 21.667969 12.046875 Z M 11.378906 16.078125 C 11.378906 15.382812 11.378906 15.882812 11.378906 14.34375 L 12.621094 14.34375 L 12.621094 16.078125 Z M 22.445312 9.832031 C 22.070312 10.042969 14.527344 14.253906 14.175781 14.453125 L 14.175781 14.027344 C 14.175781 13.347656 13.621094 12.789062 12.9375 12.789062 L 11.0625 12.789062 C 10.378906 12.789062 9.824219 13.347656 9.824219 14.027344 L 9.824219 14.453125 C 9.59375 14.320312 1.65625 9.890625 1.554688 9.832031 L 1.554688 6.785156 L 22.445312 6.785156 Z M 22.445312 9.832031 "/>
</g>
</svg>
